<?xml version="1.0" encoding="UTF-8" standalone="no"?>
<!-- Created with Inkscape (http://www.inkscape.org/) -->

<svg
   width="75.022247mm"
   height="55.735641mm"
   viewBox="0 0 75.022247 55.735641"
   version="1.1"
   id="svg1"
   xml:space="preserve"
   xmlns:inkscape="http://www.inkscape.org/namespaces/inkscape"
   xmlns:sodipodi="http://sodipodi.sourceforge.net/DTD/sodipodi-0.dtd"
   xmlns="http://www.w3.org/2000/svg"
   xmlns:svg="http://www.w3.org/2000/svg"><sodipodi:namedview
     id="namedview1"
     pagecolor="#ffffff"
     bordercolor="currentColor"
     borderopacity="0.25"
     inkscape:showpageshadow="2"
     inkscape:pageopacity="0.0"
     inkscape:pagecheckerboard="0"
     inkscape:deskcolor="#d1d1d1"
     inkscape:document-units="mm" /><defs
     id="defs1" /><g
     inkscape:label="Capa 1"
     inkscape:groupmode="layer"
     id="layer1"
     transform="translate(-66.261026,-117.05616)"><path
       style="display:inline;fill:none;fill-opacity:1;fill-rule:nonzero;stroke:currentColor;stroke-width:1.065;stroke-dasharray:none;stroke-opacity:1"
       d="m 66.840345,144.82074 c 6.356369,-13.19285 15.912572,-24.93984 35.895745,-27.23125 18.5099,0.50678 30.44147,10.7166 37.95871,27.43755 -7.72979,15.69855 -18.7697,25.77966 -36.92723,27.23125 -14.386888,-0.68367 -30.164769,-9.72809 -36.927225,-27.43755 z"
       id="path1"
       sodipodi:nodetypes="ccccc" /><path
       style="display:inline;fill:none;fill-opacity:1;fill-rule:nonzero;stroke:currentColor;stroke-width:0.942822;stroke-dasharray:none;stroke-opacity:1"
       d="m 71.004239,144.67448 c 5.627164,-11.67936 14.087075,-22.07873 31.777771,-24.10727 16.38643,0.44864 26.94921,9.48718 33.60407,24.2899 -6.84303,13.89761 -16.61644,22.82221 -32.69093,24.10728 -12.73641,-0.60524 -26.704247,-8.61209 -32.690911,-24.28991 z"
       id="path2"
       sodipodi:nodetypes="ccccc" /><ellipse
       style="fill:none;fill-opacity:1;fill-rule:nonzero;stroke:currentColor;stroke-width:1.22633;stroke-dasharray:none;stroke-opacity:1"
       id="path3"
       cx="103.32172"
       cy="144.70726"
       rx="23.058994"
       ry="23.380062" /><ellipse
       style="fill:none;fill-opacity:1;fill-rule:nonzero;stroke:currentColor;stroke-width:1.27971;stroke-dasharray:none;stroke-opacity:1"
       id="path4"
       cx="103.25183"
       cy="144.9239"
       rx="19.078297"
       ry="19.181446" /><rect
       style="fill:none;fill-opacity:1;fill-rule:nonzero;stroke:currentColor;stroke-width:1.15462;stroke-dasharray:none;stroke-opacity:1"
       id="rect5"
       width="20.230679"
       height="16.414177"
       x="93.291222"
       y="141.77109"
       ry="3.5833769" /><path
       style="fill:none;fill-opacity:1;fill-rule:nonzero;stroke:currentColor;stroke-width:1.065;stroke-dasharray:none;stroke-opacity:1"
       d="m 94.896787,141.72629 c -0.454649,-7.9514 2.311333,-11.19987 8.458193,-11.44951 7.56262,0.98027 9.01962,5.51665 8.30714,11.72874 z"
       id="path5"
       sodipodi:nodetypes="cccc" /><path
       style="fill:none;fill-opacity:1;fill-rule:nonzero;stroke:currentColor;stroke-width:1;stroke-dasharray:none;stroke-opacity:1"
       d="m 98.174348,141.67421 c -0.267659,-5.57572 1.495195,-7.84513 5.394642,-8.00245 4.79422,0.70901 5.70655,3.89347 5.23846,8.24649 z"
       id="path5-0"
       sodipodi:nodetypes="cccc" /><path
       style="fill:none;fill-opacity:1;fill-rule:nonzero;stroke:currentColor;stroke-width:1;stroke-dasharray:none;stroke-opacity:1"
       d="m 100.98256,154.82617 4.64169,-0.10315 -0.51575,-4.2291 c 2.03847,-2.4571 0.46366,-4.96425 -1.8051,-4.95113 -0.13553,-0.43757 -4.809701,1.22895 -1.70195,4.89956 -0.20629,2.5586 -0.41259,3.05379 -0.61889,4.38382 z"
       id="path6"
       sodipodi:nodetypes="cccccc" /><circle
       style="fill:currentColor;fill-opacity:1;fill-rule:nonzero;stroke:currentColor;stroke-width:1;stroke-dasharray:none;stroke-opacity:1"
       id="path7"
       cx="88.192123"
       cy="145.13019"
       r="0.72204071" /><circle
       style="fill:currentColor;fill-opacity:1;fill-rule:nonzero;stroke:currentColor;stroke-width:1;stroke-dasharray:none;stroke-opacity:1"
       id="path7-9"
       cx="118.37885"
       cy="145.03667"
       r="0.72204071" /><circle
       style="fill:currentColor;fill-opacity:1;fill-rule:nonzero;stroke:currentColor;stroke-width:1;stroke-dasharray:none;stroke-opacity:1"
       id="path7-9-9"
       cx="130.66194"
       cy="144.82367"
       r="0.72204071" /><circle
       style="fill:currentColor;fill-opacity:1;fill-rule:nonzero;stroke:currentColor;stroke-width:1;stroke-dasharray:none;stroke-opacity:1"
       id="path7-9-9-7"
       cx="75.781883"
       cy="145.06564"
       r="0.72204071" /><path
       style="fill:currentColor;fill-opacity:1;fill-rule:nonzero;stroke:currentColor;stroke-width:1;stroke-dasharray:none;stroke-opacity:1"
       d="m 103.35498,121.1997 v 4.95114"
       id="path8" /><path
       style="fill:currentColor;fill-opacity:1;fill-rule:nonzero;stroke:currentColor;stroke-width:1;stroke-dasharray:none;stroke-opacity:1"
       d="m 103.35498,164.2127 v 4.53854 z"
       id="path9" /><path
       style="fill:currentColor;fill-opacity:1;fill-rule:nonzero;stroke:currentColor;stroke-width:1;stroke-dasharray:none;stroke-opacity:1"
       d="m 80.45597,144.92389 h 3.610203 z"
       id="path10" /><path
       style="fill:currentColor;fill-opacity:1;fill-rule:nonzero;stroke:currentColor;stroke-width:1;stroke-dasharray:none;stroke-opacity:1"
       d="m 122.35055,145.03881 h 3.6102 z"
       id="path10-8" /><path
       style="fill:currentColor;fill-opacity:1;fill-rule:nonzero;stroke:currentColor;stroke-width:1.20712;stroke-dasharray:none;stroke-opacity:1"
       d="m 131.11252,144.94449 h 5.26058 z"
       id="path10-8-9" /><path
       style="fill:currentColor;fill-opacity:1;fill-rule:nonzero;stroke:currentColor;stroke-width:1.20712;stroke-dasharray:none;stroke-opacity:1"
       d="m 70.931621,144.97634 h 5.26058 z"
       id="path10-8-9-3" /></g></svg>
