<?xml version="1.0" encoding="UTF-8" standalone="no"?>
<!-- Created with Inkscape (http://www.inkscape.org/) -->

<svg
   width="84.196182mm"
   height="124.33662mm"
   viewBox="0 0 84.196182 124.33662"
   version="1.1"
   id="svg1"
   xml:space="preserve"
   inkscape:export-filename="gorra-marcador.svg"
   inkscape:export-xdpi="96"
   inkscape:export-ydpi="96"
   inkscape:version="1.3.2 (091e20e, 2023-11-25, custom)"
   sodipodi:docname="marcador-gorra.svg"
   xmlns:inkscape="http://www.inkscape.org/namespaces/inkscape"
   xmlns:sodipodi="http://sodipodi.sourceforge.net/DTD/sodipodi-0.dtd"
   xmlns="http://www.w3.org/2000/svg"
   xmlns:svg="http://www.w3.org/2000/svg"><sodipodi:namedview
     id="namedview1"
     pagecolor="#ffffff"
     bordercolor="#000000"
     borderopacity="0.25"
     inkscape:showpageshadow="2"
     inkscape:pageopacity="0.0"
     inkscape:pagecheckerboard="0"
     inkscape:deskcolor="#d1d1d1"
     inkscape:document-units="mm"
     inkscape:zoom="0.64126689"
     inkscape:cx="304.08556"
     inkscape:cy="470.16306"
     inkscape:window-width="1366"
     inkscape:window-height="705"
     inkscape:window-x="-8"
     inkscape:window-y="-8"
     inkscape:window-maximized="1"
     inkscape:current-layer="layer3" /><defs
     id="defs1" /><g
     inkscape:groupmode="layer"
     id="layer3"
     inkscape:label="Capa 2"
     transform="translate(-65.107317,-68.769087)"><path
       style="opacity:1;fill:#000000;fill-opacity:0;stroke:#000000;stroke-width:1"
       d="M 107.94695,192.40815 C 97.511143,183.72579 89.188708,166.24484 80.230844,150.54224 40.009874,89.94256 94.207757,67.111927 105.32122,69.436148 c 38.19913,-1.592998 58.48386,37.285512 30.34184,79.647352 -8.51814,14.68174 -15.92209,29.73487 -27.71611,43.32465 z"
       id="path1"
       sodipodi:nodetypes="ccccc" /><path
       style="opacity:1;fill:#000000;fill-opacity:0;stroke:#000000;stroke-width:1"
       d="m 106.75888,125.84139 c -9.3879,-0.73675 -16.316654,11.94466 -23.827341,9.28338 -5.095902,-2.7639 -2.88979,-9.48307 -1.650379,-15.6786 -0.370667,-16.07592 1.998558,-32.729613 21.86752,-36.514631 0.18781,-3.363476 2.02021,-4.484327 4.33224,-4.951138 2.99176,0.198447 4.0519,2.4665 4.33225,5.57003 21.23809,6.08264 22.81688,20.128539 22.69271,34.864249 1.89324,6.65435 2.78107,17.47875 -5.05429,17.22583 -7.80813,-3.6545 -20.35703,-12.0863 -22.69271,-9.79912 z"
       id="path2"
       sodipodi:nodetypes="ccccccccc" /><path
       style="opacity:1;fill:#000000;fill-opacity:0;stroke:#000000;stroke-width:1"
       d="m 93.359527,122.09676 c 8.903393,-4.88911 18.425223,-5.60369 28.883103,0"
       id="path3"
       sodipodi:nodetypes="cc" /><path
       style="opacity:1;fill:#000000;fill-opacity:0;stroke:#000000;stroke-width:1"
       d="m 81.543712,118.88752 c 5.921539,-6.3064 14.891655,-8.91096 26.257368,-8.60658 10.46506,0.48036 19.72311,2.83827 26.69499,8.75246"
       id="path4"
       sodipodi:nodetypes="ccc" /><path
       style="opacity:1;fill:#000000;fill-opacity:0;stroke:#000000;stroke-width:1"
       d="m 107.94695,84.607071 -0.43762,25.819749"
       id="path5" /><ellipse
       style="opacity:1;fill:#000000;fill-opacity:1;stroke:#000000;stroke-width:1"
       id="path6"
       cx="97.444008"
       cy="93.432465"
       rx="1.7504911"
       ry="1.677554" /><ellipse
       style="fill:#000000;fill-opacity:1;stroke:#000000;stroke-width:1"
       id="path6-4"
       cx="117.5184"
       cy="93.285767"
       rx="1.7504911"
       ry="1.677554" /><path
       style="opacity:1;fill:#2a70c0;fill-opacity:0.427451;stroke:#000000;stroke-width:4.16758"
       d="m 398.01962,713.79587 c -21.31141,-22.04125 -34.86366,-42.59552 -71.89016,-109.03356 -11.81342,-21.19724 -24.19842,-42.75816 -27.52224,-47.91315 -18.97439,-29.42787 -34.20021,-63.11025 -41.75798,-92.37653 -15.42889,-59.746 -2.59354,-112.47268 36.96884,-151.86523 18.5506,-18.47098 42.24622,-33.38392 66.2042,-41.66589 17.04041,-5.89066 23.78664,-6.72416 48.16642,-5.95097 36.42895,1.15532 61.62223,8.24197 86.15879,24.23571 33.54914,21.86843 54.3243,53.65116 62.6903,95.90633 3.20578,16.19178 3.4301,44.99587 0.4904,62.96849 -5.43146,33.20667 -20.50968,71.99998 -39.94011,102.75808 -3.4221,5.41715 -14.66046,24.73542 -24.97411,42.9295 -23.43985,41.34969 -39.49126,68.16115 -50.17093,83.80305 -10.09863,14.79085 -24.96486,34.69983 -30.7392,41.16619 l -4.26668,4.77802 z M 333.55816,511.95833 c 3.03234,-0.97821 13.14396,-6.94814 22.47025,-13.26651 23.29035,-15.77875 31.94596,-19.94444 42.85384,-20.62436 2.88579,-0.17988 6.08874,-0.68188 7.11766,-1.11556 4.39126,-1.85087 19.67861,4.43167 46.33816,19.04329 32.03396,17.55724 35.85037,19.26138 41.84541,18.68533 7.48995,-0.71969 13.27623,-4.89836 16.82403,-12.1498 5.64221,-11.53224 6.11344,-24.98806 1.6565,-47.30056 -1.32961,-6.65635 -2.12706,-15.21323 -2.12706,-22.82397 0,-23.61805 -4.84019,-48.56192 -12.29036,-63.33824 -12.57686,-24.94437 -34.63035,-42.6516 -65.50508,-52.59548 l -7.75947,-2.4991 -1.33244,-5.64501 c -3.21959,-13.64007 -13.29141,-19.15703 -24.74398,-13.55381 -6.03462,2.95247 -9.45352,7.17894 -10.68738,13.21183 -0.60484,2.95731 -1.35334,3.42977 -8.2946,5.23569 -36.69032,9.54577 -59.74115,33.44418 -69.52391,72.08031 -3.34742,13.22034 -4.82241,26.04865 -5.59774,48.68471 -0.41977,12.25566 -1.43887,22.63317 -2.96942,30.23765 -3.2003,15.9007 -3.24288,30.82991 -0.10726,37.61044 5.41567,11.71095 16.24009,15.15321 31.83285,10.12315 z"
       id="path7"
       transform="scale(0.26458333)" /><path
       style="opacity:1;fill:#2a73be;fill-opacity:1;stroke:#000000;stroke-width:4.16758"
       d="M 396.12804,707.57618 C 375.90884,685.3113 366.09229,670.11811 326.0722,599.14991 315.4231,580.26571 303.37472,559.42522 299.29803,552.8377 276.13498,515.40866 260.15001,475.4275 255.30631,442.8069 c -2.21218,-14.89829 -2.17367,-38.22714 0.0849,-51.43984 5.00699,-29.29077 18.27211,-54.28746 40.65075,-76.60202 25.3548,-25.28218 61.299,-44.14975 89.02729,-46.73156 22.21235,-2.06822 57.08149,1.68706 76.71061,8.26145 33.2045,11.1212 63.5634,37.73509 79.57051,69.75486 4.37234,8.74618 10.36529,26.67062 12.78246,38.23126 2.46988,11.81282 3.36483,41.08201 1.69524,55.44324 -3.86301,33.22843 -18.91723,74.1162 -40.21272,109.21906 -3.43282,5.65856 -16.71918,28.48386 -29.52525,50.7229 -12.80606,22.23904 -27.73144,47.62954 -33.1675,56.42335 -14.71591,23.80562 -42.21813,61.55299 -45.48546,62.42976 -0.60647,0.16274 -5.69557,-4.76169 -11.30912,-10.94318 z M 328.09571,515.94757 c 8.15429,-1.50739 9.40714,-2.15598 30.1761,-15.62158 22.72024,-14.73072 30.25274,-18.21671 42.6428,-19.73479 9.78223,-1.19855 9.87524,-1.18678 18.91899,2.39367 4.99863,1.97897 19.63659,9.26333 32.52881,16.18745 12.89221,6.92412 26.27859,13.80236 29.74752,15.28498 15.22718,6.50812 27.74,0.39927 33.60253,-16.40502 2.5918,-7.42908 2.57699,-28.30966 -0.0294,-41.54624 -1.01509,-5.15499 -2.31515,-18.30435 -2.88904,-29.2208 -1.84849,-35.16222 -7.17672,-54.11647 -20.45817,-72.77632 -6.05336,-8.50472 -18.03896,-20.02406 -26.39859,-25.37164 -8.11084,-5.18844 -24.46738,-12.93032 -32.672,-15.46433 -5.91034,-1.82542 -6.2021,-2.09619 -7.50419,-6.96455 -1.95496,-7.3094 -5.25898,-12.05428 -10.12101,-14.5347 -5.94735,-3.03411 -11.79179,-2.75682 -18.77401,0.89074 -4.84935,2.53333 -6.44399,4.1666 -9.23876,9.46257 l -3.37778,6.40076 -12.19235,4.07818 c -32.50063,10.87101 -52.71753,32.4413 -62.77208,66.97425 -3.84836,13.21741 -5.68907,26.68184 -7.0945,51.89468 -0.64781,11.62136 -1.99095,25.51502 -2.98477,30.87481 -0.99382,5.3598 -1.84836,15.69952 -1.89898,22.97715 -0.0805,11.56538 0.20945,13.80076 2.30163,17.74714 2.90101,5.47203 9.19376,11.20183 13.29488,12.10551 1.65667,0.36505 3.50832,0.82924 4.11479,1.03155 2.07094,0.69083 4.55704,0.54193 11.07763,-0.66347 z"
       id="path8"
       transform="scale(0.26458333)" /><path
       style="opacity:1;fill:#808080;fill-opacity:1;stroke:#000000;stroke-width:5.89385"
       d="m 310.77498,422.38464 c 1.67007,-37.27747 10.78076,-62.5545 29.14942,-80.87317 11.31637,-11.28556 22.48559,-17.57177 40.404,-22.73997 11.21034,-3.23339 11.8772,-3.68002 12.89026,-8.63335 1.20196,-5.87689 7.68209,-12.29024 12.41823,-12.29024 7.17596,0 13.84524,7.79671 13.84524,16.18574 0,3.3339 1.15572,4.2013 8.40626,6.30908 4.62344,1.34408 14.94571,5.71743 22.93838,9.71857 11.12413,5.56876 17.13596,9.87864 25.63519,18.37788 18.55948,18.55948 26.70427,40.29053 28.36063,75.66889 l 0.91017,19.44036 -3.75013,-2.41866 c -22.98752,-14.82593 -49.61592,-23.41922 -79.74697,-25.73528 l -13.15951,-1.01152 0.73814,-47.35164 c 0.64038,-41.08074 0.43275,-47.35164 -1.56781,-47.35164 -1.91666,0 -2.47845,4.93604 -3.3278,29.239 -0.56203,16.08144 -1.02385,37.48439 -1.02627,47.5621 l -0.004,18.3231 -12.08545,0.0118 c -28.61543,0.0279 -55.51777,8.22015 -74.44986,22.67134 l -7.51117,5.7334 z m 64.15249,-63.0513 c 3.17374,-3.17374 3.13315,-9.11938 -0.0842,-12.33675 -3.84228,-3.84228 -11.68567,-2.47588 -14.47741,2.52211 -2.05536,3.67967 -2.01598,4.53454 0.37715,8.18692 3.09855,4.72899 10.26126,5.55093 14.18447,1.62772 z m 75.74292,-0.66832 c 8.0218,-8.0218 -2.28143,-19.56681 -11.86072,-13.29022 -4.93019,3.23039 -5.07156,10.61668 -0.2676,13.9815 4.66464,3.26725 8.38166,3.05539 12.12832,-0.69128 z"
       id="path9"
       transform="scale(0.26458333)" /><path
       style="opacity:1;fill:#808080;fill-opacity:1;stroke:#000000;stroke-width:5.89385"
       d="m 315.15178,508.01029 c -10.4001,-5.4959 -12.88774,-16.89965 -8.6826,-39.80238 2.68965,-14.64884 3.05657,-15.45972 10.14765,-22.42554 25.7133,-25.25906 84.22884,-33.36242 138.51021,-19.1812 16.61553,4.34087 37.17869,13.90155 45.92219,21.35115 7.10391,6.05265 8.80322,11.99284 8.80741,30.78751 0.002,9.69667 -0.79221,15.00642 -2.95908,19.7791 -2.92,6.43151 -9.49644,11.40916 -15.07368,11.40916 -1.46572,0 -12.20203,-5.18498 -23.85849,-11.52219 -49.40765,-26.86123 -53.7764,-28.39143 -71.97221,-25.20898 -13.85158,2.42265 -20.69319,5.66799 -39.66728,18.81632 -22.86918,15.84748 -33.58139,20.00941 -41.17412,15.99705 z m 52.57982,-50.30706 c 12.04256,-5.03744 27.92076,-8.52898 38.95111,-8.56517 11.77286,-0.0386 30.49706,4.15974 42.18272,9.45827 11.11608,5.04028 14.28027,5.58117 14.28027,2.4411 0,-2.37001 -16.98083,-10.42434 -28.84914,-13.6837 -4.75474,-1.30578 -15.70713,-2.14128 -28.06944,-2.14128 -21.17859,0 -31.73924,2.30314 -48.34181,10.54273 -7.72086,3.83174 -7.56447,3.68427 -6.21781,5.86321 1.26978,2.05455 2.52307,1.7491 16.0641,-3.91516 z"
       id="path10"
       transform="scale(0.26458333)" /></g></svg>
